<mxfile host="app.diagrams.net" agent="Mozilla/5.0 (Windows NT 10.0; Win64; x64) AppleWebKit/537.36 (KHTML, like Gecko) Chrome/129.0.0.0 Safari/537.36" version="24.7.17" pages="2">
  <diagram name="Página-1" id="aq55gZlXgo-UcvXPsuLS">
    <mxGraphModel dx="350" dy="206" grid="1" gridSize="10" guides="1" tooltips="1" connect="1" arrows="1" fold="1" page="1" pageScale="1" pageWidth="827" pageHeight="1169" math="0" shadow="0">
      <root>
        <mxCell id="0" />
        <mxCell id="1" parent="0" />
        <mxCell id="_MTiduj4wmO0HroMUwj_-1" value="Navegador" style="shape=cube;whiteSpace=wrap;html=1;boundedLbl=1;backgroundOutline=1;darkOpacity=0.05;darkOpacity2=0.1;size=20;direction=east;flipH=1;" parent="1" vertex="1">
          <mxGeometry x="260" y="125" width="90" height="70" as="geometry" />
        </mxCell>
        <mxCell id="_MTiduj4wmO0HroMUwj_-4" value="&lt;p style=&quot;line-height: 0%; padding-top: 0px; padding-bottom: 200px;&quot;&gt;&lt;font style=&quot;font-size: 21px;&quot;&gt;&amp;nbsp; &amp;nbsp; &amp;nbsp;Servidor Web&lt;/font&gt;&lt;/p&gt;" style="shape=cube;whiteSpace=wrap;html=1;boundedLbl=1;backgroundOutline=1;darkOpacity=0.05;darkOpacity2=0.1;size=20;direction=east;flipH=1;align=left;" parent="1" vertex="1">
          <mxGeometry x="40" y="240" width="800" height="320" as="geometry" />
        </mxCell>
        <mxCell id="_MTiduj4wmO0HroMUwj_-5" value="&lt;p style=&quot;line-height: 100%; padding-left: 0px; padding-bottom: 200px;&quot;&gt;Servidor APP&lt;/p&gt;" style="shape=cube;whiteSpace=wrap;html=1;boundedLbl=1;backgroundOutline=1;darkOpacity=0.05;darkOpacity2=0.1;size=20;direction=east;flipH=1;" parent="1" vertex="1">
          <mxGeometry x="340" y="270" width="450" height="250" as="geometry" />
        </mxCell>
        <mxCell id="_MTiduj4wmO0HroMUwj_-17" value="&amp;lt;&amp;lt;artifact&amp;gt;&amp;gt;&lt;br style=&quot;font-size: 10px;&quot;&gt;&lt;br style=&quot;font-size: 10px;&quot;&gt;&lt;b style=&quot;font-size: 10px;&quot;&gt;HTML - CSS - JavaScript&lt;/b&gt;" style="html=1;align=center;verticalAlign=middle;dashed=0;whiteSpace=wrap;fontSize=10;" parent="1" vertex="1">
          <mxGeometry x="60" y="350" width="170" height="50" as="geometry" />
        </mxCell>
        <mxCell id="_MTiduj4wmO0HroMUwj_-144" style="edgeStyle=orthogonalEdgeStyle;rounded=0;orthogonalLoop=1;jettySize=auto;html=1;entryX=0.5;entryY=0;entryDx=0;entryDy=0;" parent="1" source="_MTiduj4wmO0HroMUwj_-18" target="_MTiduj4wmO0HroMUwj_-143" edge="1">
          <mxGeometry relative="1" as="geometry" />
        </mxCell>
        <mxCell id="_MTiduj4wmO0HroMUwj_-18" value="&amp;lt;&amp;lt;artifact&amp;gt;&amp;gt;&lt;br style=&quot;font-size: 10px;&quot;&gt;&lt;b&gt;Carro de Compras&lt;/b&gt;" style="html=1;align=center;verticalAlign=middle;dashed=0;whiteSpace=wrap;fontSize=10;" parent="1" vertex="1">
          <mxGeometry x="470" y="390" width="140" height="30" as="geometry" />
        </mxCell>
        <mxCell id="_MTiduj4wmO0HroMUwj_-155" style="edgeStyle=orthogonalEdgeStyle;rounded=0;orthogonalLoop=1;jettySize=auto;html=1;entryX=1;entryY=0.5;entryDx=0;entryDy=0;" parent="1" source="_MTiduj4wmO0HroMUwj_-19" target="_MTiduj4wmO0HroMUwj_-18" edge="1">
          <mxGeometry relative="1" as="geometry" />
        </mxCell>
        <mxCell id="_MTiduj4wmO0HroMUwj_-19" value="&amp;lt;&amp;lt;artifact&amp;gt;&amp;gt;&lt;br style=&quot;font-size: 10px;&quot;&gt;&lt;b style=&quot;font-size: 10px;&quot;&gt;Autentificación de Usuario&lt;/b&gt;" style="html=1;align=center;verticalAlign=middle;dashed=0;whiteSpace=wrap;fontSize=10;" parent="1" vertex="1">
          <mxGeometry x="580" y="330" width="140" height="30" as="geometry" />
        </mxCell>
        <mxCell id="_MTiduj4wmO0HroMUwj_-22" value="Plataforma de Pago" style="shape=cube;whiteSpace=wrap;html=1;boundedLbl=1;backgroundOutline=1;darkOpacity=0.05;darkOpacity2=0.1;size=20;direction=east;flipH=1;" parent="1" vertex="1">
          <mxGeometry x="590" y="585" width="160" height="120" as="geometry" />
        </mxCell>
        <mxCell id="_MTiduj4wmO0HroMUwj_-126" value="&lt;p style=&quot;line-height: 100%; padding-left: 0px; padding-bottom: 70px;&quot;&gt;Base de Datos&lt;/p&gt;" style="shape=cube;whiteSpace=wrap;html=1;boundedLbl=1;backgroundOutline=1;darkOpacity=0.05;darkOpacity2=0.1;size=20;direction=east;flipH=1;" parent="1" vertex="1">
          <mxGeometry x="270" y="585" width="180" height="120" as="geometry" />
        </mxCell>
        <mxCell id="_MTiduj4wmO0HroMUwj_-128" value="&amp;lt;&amp;lt;artifact&amp;gt;&amp;gt;&lt;br style=&quot;font-size: 10px;&quot;&gt;&lt;b style=&quot;font-size: 10px;&quot;&gt;Tablas &amp;amp; Procedimientos&lt;/b&gt;" style="html=1;align=center;verticalAlign=middle;dashed=0;whiteSpace=wrap;fontSize=10;" parent="1" vertex="1">
          <mxGeometry x="280" y="640" width="140" height="30" as="geometry" />
        </mxCell>
        <mxCell id="_MTiduj4wmO0HroMUwj_-129" value="HTTP" style="text;html=1;align=center;verticalAlign=middle;whiteSpace=wrap;rounded=0;" parent="1" vertex="1">
          <mxGeometry x="370" y="180" width="60" height="30" as="geometry" />
        </mxCell>
        <mxCell id="_MTiduj4wmO0HroMUwj_-131" style="edgeStyle=orthogonalEdgeStyle;rounded=0;orthogonalLoop=1;jettySize=auto;html=1;entryX=0.435;entryY=-0.019;entryDx=0;entryDy=0;entryPerimeter=0;" parent="1" source="_MTiduj4wmO0HroMUwj_-1" target="_MTiduj4wmO0HroMUwj_-4" edge="1">
          <mxGeometry relative="1" as="geometry" />
        </mxCell>
        <mxCell id="_MTiduj4wmO0HroMUwj_-153" style="edgeStyle=orthogonalEdgeStyle;rounded=0;orthogonalLoop=1;jettySize=auto;html=1;dashed=1;dashPattern=8 8;" parent="1" source="_MTiduj4wmO0HroMUwj_-136" target="_MTiduj4wmO0HroMUwj_-19" edge="1">
          <mxGeometry relative="1" as="geometry" />
        </mxCell>
        <mxCell id="_MTiduj4wmO0HroMUwj_-154" style="edgeStyle=orthogonalEdgeStyle;rounded=0;orthogonalLoop=1;jettySize=auto;html=1;entryX=0;entryY=0.5;entryDx=0;entryDy=0;" parent="1" source="_MTiduj4wmO0HroMUwj_-136" target="_MTiduj4wmO0HroMUwj_-18" edge="1">
          <mxGeometry relative="1" as="geometry" />
        </mxCell>
        <mxCell id="_MTiduj4wmO0HroMUwj_-136" value="&amp;lt;&amp;lt;artifact&amp;gt;&amp;gt;&lt;br style=&quot;font-size: 10px;&quot;&gt;&lt;b&gt;Usuario Invitado&lt;/b&gt;" style="html=1;align=center;verticalAlign=middle;dashed=0;whiteSpace=wrap;fontSize=10;" parent="1" vertex="1">
          <mxGeometry x="380" y="330" width="140" height="30" as="geometry" />
        </mxCell>
        <mxCell id="_MTiduj4wmO0HroMUwj_-156" style="edgeStyle=orthogonalEdgeStyle;rounded=0;orthogonalLoop=1;jettySize=auto;html=1;" parent="1" source="_MTiduj4wmO0HroMUwj_-143" edge="1">
          <mxGeometry relative="1" as="geometry">
            <mxPoint x="680" y="580" as="targetPoint" />
          </mxGeometry>
        </mxCell>
        <mxCell id="_MTiduj4wmO0HroMUwj_-157" style="edgeStyle=orthogonalEdgeStyle;rounded=0;orthogonalLoop=1;jettySize=auto;html=1;" parent="1" source="_MTiduj4wmO0HroMUwj_-143" edge="1">
          <mxGeometry relative="1" as="geometry">
            <mxPoint x="370" y="580" as="targetPoint" />
          </mxGeometry>
        </mxCell>
        <mxCell id="_MTiduj4wmO0HroMUwj_-143" value="&amp;lt;&amp;lt;artifact&amp;gt;&amp;gt;&lt;br style=&quot;font-size: 10px;&quot;&gt;&lt;b&gt;Mantenedor de Ventas&lt;/b&gt;" style="html=1;align=center;verticalAlign=middle;dashed=0;whiteSpace=wrap;fontSize=10;" parent="1" vertex="1">
          <mxGeometry x="470" y="460" width="140" height="30" as="geometry" />
        </mxCell>
        <mxCell id="_MTiduj4wmO0HroMUwj_-158" value="HTTP" style="text;html=1;align=center;verticalAlign=middle;whiteSpace=wrap;rounded=0;" parent="1" vertex="1">
          <mxGeometry x="670" y="480" width="60" height="30" as="geometry" />
        </mxCell>
        <mxCell id="_MTiduj4wmO0HroMUwj_-160" value="&lt;div&gt;SQL&lt;/div&gt;" style="text;html=1;align=center;verticalAlign=middle;whiteSpace=wrap;rounded=0;" parent="1" vertex="1">
          <mxGeometry x="360" y="480" width="60" height="30" as="geometry" />
        </mxCell>
        <mxCell id="8dfecYyoUXoZajHaP0Mu-2" style="edgeStyle=orthogonalEdgeStyle;rounded=0;orthogonalLoop=1;jettySize=auto;html=1;entryX=0;entryY=0;entryDx=90;entryDy=45;entryPerimeter=0;" parent="1" source="7EjRqkuO_G5rNswDsHaw-5" target="_MTiduj4wmO0HroMUwj_-1" edge="1">
          <mxGeometry relative="1" as="geometry">
            <mxPoint x="140" y="130" as="sourcePoint" />
          </mxGeometry>
        </mxCell>
        <mxCell id="7EjRqkuO_G5rNswDsHaw-4" value="Cliente" style="text;html=1;align=center;verticalAlign=middle;whiteSpace=wrap;rounded=0;" vertex="1" parent="1">
          <mxGeometry x="83.25" y="195" width="60" height="30" as="geometry" />
        </mxCell>
        <mxCell id="7EjRqkuO_G5rNswDsHaw-5" value="" style="html=1;outlineConnect=0;whiteSpace=wrap;fillColor=#ffff99;verticalLabelPosition=bottom;verticalAlign=top;align=center;shape=mxgraph.archimate3.actor;" vertex="1" parent="1">
          <mxGeometry x="100" y="145" width="26.5" height="50" as="geometry" />
        </mxCell>
      </root>
    </mxGraphModel>
  </diagram>
  <diagram id="ygMxaPLxE_vaOediTiKU" name="Página-2">
    <mxGraphModel grid="1" page="1" gridSize="10" guides="1" tooltips="1" connect="1" arrows="1" fold="1" pageScale="1" pageWidth="827" pageHeight="1169" math="0" shadow="0">
      <root>
        <mxCell id="0" />
        <mxCell id="1" parent="0" />
      </root>
    </mxGraphModel>
  </diagram>
</mxfile>
